<?xml version="1.0" encoding="UTF-8" standalone="no" ?>
<!DOCTYPE svg PUBLIC "-//W3C//DTD SVG 1.1//EN" "http://www.w3.org/Graphics/SVG/1.1/DTD/svg11.dtd">
<svg xmlns="http://www.w3.org/2000/svg" xmlns:xlink="http://www.w3.org/1999/xlink" version="1.1" width="210" height="210" viewBox="-45 -45 300 300" xml:space="preserve">
<desc>Created with Fabric.js 1.7.22</desc>
<defs>
</defs>
<g id="icon" style="stroke: none; stroke-width: 1; stroke-dasharray: none; stroke-linecap: butt; stroke-linejoin: miter; stroke-miterlimit: 10; fill: none; fill-rule: nonzero; opacity: 1;" transform="translate(-1.1666666666666714 -1.1666666666666714) scale(2.33 2.33)" >
	<path d="M 58.873 64.669 h -8.531 c -1.104 0 -2 -0.896 -2 -2 s 0.896 -2 2 -2 h 6.531 v -6.531 c 0 -1.104 0.896 -2 2 -2 s 2 0.896 2 2 v 8.531 C 60.873 63.773 59.978 64.669 58.873 64.669 z" style="stroke: none; stroke-width: 1; stroke-dasharray: none; stroke-linecap: butt; stroke-linejoin: miter; stroke-miterlimit: 10; fill: rgb(0,0,0); fill-rule: nonzero; opacity: 1;" transform=" matrix(1 0 0 1 0 0) " stroke-linecap="round" />
	<path d="M 39.658 64.669 h -8.531 c -1.104 0 -2 -0.896 -2 -2 v -8.531 c 0 -1.104 0.896 -2 2 -2 s 2 0.896 2 2 v 6.531 h 6.531 c 1.104 0 2 0.896 2 2 S 40.762 64.669 39.658 64.669 z" style="stroke: none; stroke-width: 1; stroke-dasharray: none; stroke-linecap: butt; stroke-linejoin: miter; stroke-miterlimit: 10; fill: rgb(0,0,0); fill-rule: nonzero; opacity: 1;" transform=" matrix(1 0 0 1 0 0) " stroke-linecap="round" />
	<path d="M 31.127 45.454 c -1.104 0 -2 -0.896 -2 -2 v -8.531 c 0 -1.104 0.896 -2 2 -2 h 8.531 c 1.104 0 2 0.896 2 2 s -0.896 2 -2 2 h -6.531 v 6.531 C 33.127 44.559 32.231 45.454 31.127 45.454 z" style="stroke: none; stroke-width: 1; stroke-dasharray: none; stroke-linecap: butt; stroke-linejoin: miter; stroke-miterlimit: 10; fill: rgb(0,0,0); fill-rule: nonzero; opacity: 1;" transform=" matrix(1 0 0 1 0 0) " stroke-linecap="round" />
	<path d="M 58.873 45.454 c -1.104 0 -2 -0.896 -2 -2 v -6.531 h -6.531 c -1.104 0 -2 -0.896 -2 -2 s 0.896 -2 2 -2 h 8.531 c 1.104 0 2 0.896 2 2 v 8.531 C 60.873 44.559 59.978 45.454 58.873 45.454 z" style="stroke: none; stroke-width: 1; stroke-dasharray: none; stroke-linecap: butt; stroke-linejoin: miter; stroke-miterlimit: 10; fill: rgb(0,0,0); fill-rule: nonzero; opacity: 1;" transform=" matrix(1 0 0 1 0 0) " stroke-linecap="round" />
	<path d="M 65.902 90 H 24.097 c -4.176 0 -7.574 -3.397 -7.574 -7.574 V 7.574 C 16.523 3.398 19.921 0 24.097 0 h 41.805 c 4.177 0 7.574 3.398 7.574 7.574 v 74.852 C 73.477 86.603 70.079 90 65.902 90 z M 24.097 4 c -1.971 0 -3.574 1.604 -3.574 3.574 v 74.852 c 0 1.971 1.604 3.574 3.574 3.574 h 41.805 c 1.971 0 3.574 -1.604 3.574 -3.574 V 7.574 C 69.477 5.604 67.873 4 65.902 4 H 24.097 z" style="stroke: none; stroke-width: 1; stroke-dasharray: none; stroke-linecap: butt; stroke-linejoin: miter; stroke-miterlimit: 10; fill: rgb(0,0,0); fill-rule: nonzero; opacity: 1;" transform=" matrix(1 0 0 1 0 0) " stroke-linecap="round" />
	<path d="M 52.921 15.66 H 37.079 c -4.809 0 -8.721 -3.912 -8.721 -8.721 V 2 c 0 -1.104 0.896 -2 2 -2 h 29.285 c 1.104 0 2 0.896 2 2 v 4.939 C 61.643 11.748 57.73 15.66 52.921 15.66 z M 32.358 4 v 2.939 c 0 2.603 2.118 4.721 4.721 4.721 h 15.842 c 2.604 0 4.722 -2.118 4.722 -4.721 V 4 H 32.358 z" style="stroke: none; stroke-width: 1; stroke-dasharray: none; stroke-linecap: butt; stroke-linejoin: miter; stroke-miterlimit: 10; fill: rgb(0,0,0); fill-rule: nonzero; opacity: 1;" transform=" matrix(1 0 0 1 0 0) " stroke-linecap="round" />
</g>
</svg>
